<?xml version="1.0" encoding="iso-8859-1"?>
<!-- Generator: Adobe Illustrator 19.0.0, SVG Export Plug-In . SVG Version: 6.00 Build 0)  -->
<svg version="1.1" id="Layer_1" xmlns="http://www.w3.org/2000/svg" xmlns:xlink="http://www.w3.org/1999/xlink" x="0px" y="0px"
	 viewBox="0 0 511.999 511.999" style="enable-background:new 0 0 511.999 511.999;" xml:space="preserve">
<g>
	<path style="fill:#A72328;" d="M261.6,396.348H42.67C19.141,396.348,0,377.207,0,353.68v-66.883
		c0-15.448,7.168-30.308,19.22-39.938l47.809-46.85L84.94,117.77c6.72-30.854,34.516-53.249,66.094-53.249h301.76
		c32.645,0,59.204,26.559,59.204,59.205v19.648c0,7.732-6.269,13.999-13.999,13.999S484,151.107,484,143.375v-19.648
		c0-17.208-13.999-31.207-31.206-31.207H151.036c-18.508,0-34.799,13.124-38.737,31.208l-18.804,86.329
		c-0.581,2.668-1.93,5.108-3.881,7.019l-51.346,50.315c-0.398,0.389-0.816,0.755-1.257,1.093
		c-5.644,4.345-9.013,11.191-9.013,18.312v66.883c0,8.089,6.581,14.67,14.671,14.67H261.6c7.73,0,13.999,6.267,13.999,13.999
		S269.331,396.348,261.6,396.348z"/>
	<path style="fill:#A72328;" d="M337.664,221.078H79.816c-7.732,0-13.999-6.267-13.999-13.999s6.267-13.999,13.999-13.999h257.847
		c7.73,0,13.999,6.267,13.999,13.999S345.394,221.078,337.664,221.078z"/>
	<path style="fill:#A72328;" d="M469.33,396.348h-82.439c-7.73,0-13.999-6.267-13.999-13.999s6.269-13.999,13.999-13.999h82.439
		c8.089,0,14.67-6.581,14.67-14.67V221.078h-81.323c-7.73,0-13.999-6.267-13.999-13.999s6.269-13.999,13.999-13.999h95.322
		c7.73,0,13.999,6.267,13.999,13.999V353.68C512,377.207,492.859,396.348,469.33,396.348z"/>
</g>
<rect x="193.343" y="78.521" style="fill:#F4DABB;" width="92.395" height="303.825"/>
<path style="fill:#A72328;" d="M285.734,396.348h-92.395c-7.732,0-13.999-6.267-13.999-13.999V78.521
	c0-7.732,6.267-13.999,13.999-13.999h92.395c7.73,0,13.999,6.267,13.999,13.999v303.828
	C299.733,390.08,293.464,396.348,285.734,396.348z M207.338,368.349h64.396V92.52h-64.396V368.349z"/>
<circle style="fill:#F4DABB;" cx="107.136" cy="382.836" r="50.649"/>
<path style="fill:#A72328;" d="M107.137,447.477c-35.643,0-64.643-28.999-64.643-64.643s28.999-64.643,64.643-64.643
	s64.643,28.999,64.643,64.643S142.781,447.477,107.137,447.477z M107.137,346.189c-20.206,0-36.644,16.439-36.644,36.644
	s16.439,36.644,36.644,36.644s36.644-16.439,36.644-36.644S127.342,346.189,107.137,346.189z"/>
<circle style="fill:#F4DABB;" cx="404.857" cy="382.836" r="50.649"/>
<path style="fill:#A72328;" d="M404.864,447.477c-35.643,0-64.643-28.999-64.643-64.643s28.999-64.643,64.643-64.643
	c35.645,0,64.644,28.999,64.644,64.643S440.509,447.477,404.864,447.477z M404.864,346.189c-20.206,0-36.644,16.439-36.644,36.644
	s16.438,36.644,36.644,36.644s36.646-16.439,36.646-36.644S425.069,346.189,404.864,346.189z"/>
<g>
</g>
<g>
</g>
<g>
</g>
<g>
</g>
<g>
</g>
<g>
</g>
<g>
</g>
<g>
</g>
<g>
</g>
<g>
</g>
<g>
</g>
<g>
</g>
<g>
</g>
<g>
</g>
<g>
</g>
</svg>
